# xmcd
#
# Track frame offsets:
#	150
#	11327
#	18566
#	36130
#	49011
#	67027
#	95480
#	111167
#	126432
#	143864
#	161510
#	176246
#	193670
#	206065
#	218927
#	236203
#	253234
#	267665
#	286445
#	302490
#	318847
#
# Disc length: 4442 seconds
#
# Revision: 0
# Processed by: cddbd v1.4PL0 Copyright (c) Steve Scherf et al.
# Submitted via: EasyCDDAExtractor 4.6.0.1
#
DISCID=45115815
DTITLE=Cumbiero - 100% Vol 1
DYEAR=2003
DGENRE=
TTITLE0=Una Rata Nada Mas (Rmx) - Damas Gratis
TTITLE1=Mas Loco que un marciano (Rmx) - Damas Gratis
TTITLE2=Chu Chu Chuchua (Rmx) - La Trucha
TTITLE3=El Ganzo - La Trucha
TTITLE4=La Vida sigue Igual - La Trucha
TTITLE5=Megamix - La Base
TTITLE6=La Mentira de un Padre - Meta Guacha
TTITLE7=La Guerra (Inedito) - Grupo Aventura
TTITLE8=Te quiero mas que Ayer (Inedito) - Grupo Aventura
TTITLE9=Dos Locos (Inedito) - Grupo Aventura
TTITLE10=Eres - Banda Uno
TTITLE11=2° de la Cita - Los Chicos de Barrio
TTITLE12=Cuando una madre llora - Marcelino
TTITLE13=Amandote - Marcelino
TTITLE14=Doble Vida (Rmx) - Pibes Chorros
TTITLE15=El Pibe Tripa (Rmx) - Pibes Chorros
TTITLE16=Mueve la Cochina (Rmx) - Los Gedes
TTITLE17=Altas Curvas (Rmx) - Los Gedes
TTITLE18=Que le den - La Konga
TTITLE19=Nadie es perfecto - Los Caligaris
TTITLE20=Danzas REMIX
EXTD=
EXTT0=
EXTT1=
EXTT2=
EXTT3=
EXTT4=
EXTT5=
EXTT6=
EXTT7=
EXTT8=
EXTT9=
EXTT10=
EXTT11=
EXTT12=
EXTT13=
EXTT14=
EXTT15=
EXTT16=
EXTT17=
EXTT18=
EXTT19=
EXTT20=
PLAYORDER=
